<svg width="200" height="180" viewBox="0 0 190 180" fill="#1164C0" xmlns="http://www.w3.org/2000/svg">
    <path fillRule="evenodd" clipRule="evenodd" d="M73.1687 45.6235L91.7774 15.9935C93.1322 13.8282 96.2876 13.8282 97.6423 15.9935L186.75 158.774C188.191 161.077 186.534 164.065 183.816 164.065L145.14 164.065L144.28 164.065L93.287 164.065C92.0904 164.065 90.9772 163.447 90.3473 162.429L67.9246 126.291L45.2952 162.414C44.6653 163.438 43.5493 164.065 42.3441 164.065H4.96062C2.23956 164.065 0.582762 161.072 2.02958 158.768L48.4907 84.6449C49.1235 83.6355 50.2309 83.023 51.4217 83.023H94.0671L73.1716 49.2985C72.4669 48.177 72.464 46.7478 73.1687 45.6235ZM94.5457 83.7956L68.5621 125.273H106.518C107.476 125.273 108.399 125.641 109.093 126.303L137.925 153.809L94.5457 83.7956Z" />
</svg>